<svg width="82" height="77" viewBox="0 0 82 77" fill="none" xmlns="http://www.w3.org/2000/svg">
<path d="M46.8183 57.8282C36.3283 55.6393 24.7048 49.3228 14.9155 49.3228C3.0104 49.3228 0.0495789 57.6753 0.0495789 57.6753C0.0495789 57.6753 -0.362601 61.3304 1.18994 65.1661C3.8485 71.7328 18.1031 77 40.402 77C64.7962 77 80.6513 70.5862 81.6818 64.8604C81.7986 64.2211 82.094 63.3247 81.9703 63.0676C79.7239 58.2938 56.7655 59.8989 46.8183 57.8282Z" fill="#212121"/>
<path d="M46.8183 54.3538C36.3283 52.1649 24.7048 45.8484 14.9155 45.8484C-0.472516 45.8484 -2.0388 57.5502 1.87691 63.0745C7.18029 70.5584 18.1031 74.2761 40.402 74.2135C63.1681 74.144 81.1666 69.12 81.1666 63.2969C81.1666 57.856 57.3082 56.5357 46.8183 54.3538Z" fill="url(#paint0_radial_10_105)"/>
<path d="M66.1838 56.1744C66.0052 58.5787 64.3222 60.5799 62.0139 61.1636C58.4074 62.067 51.785 65.1453 40.0997 65.1453C28.5175 65.1453 21.9844 62.0809 18.4328 61.1845C16.1315 60.6077 14.4621 58.5995 14.2904 56.2022L10.8693 12.0215C10.622 8.38029 12.6898 4.98231 15.9872 3.67593C20.4731 1.90398 28.0366 0 39.8249 0C51.8125 0 59.6714 1.96652 64.3428 3.76627C67.6952 5.05875 69.8316 8.47063 69.5843 12.1605L66.1838 56.1744Z" fill="url(#paint1_linear_10_105)"/>
<mask id="mask0_10_105" style="mask-type:luminance" maskUnits="userSpaceOnUse" x="10" y="0" width="60" height="66">
<path d="M66.1838 56.1744C66.0052 58.5787 64.3222 60.5799 62.0139 61.1636C58.4074 62.067 51.785 65.1453 40.0997 65.1453C28.5175 65.1453 21.9844 62.0809 18.4328 61.1845C16.1315 60.6077 14.4621 58.5995 14.2904 56.2022L10.8693 12.0215C10.622 8.38029 12.6898 4.98231 15.9872 3.67593C20.4731 1.90398 28.0366 0 39.8249 0C51.8125 0 59.6714 1.96652 64.3428 3.76627C67.6952 5.05875 69.8316 8.47063 69.5843 12.1605L66.1838 56.1744Z" fill="white"/>
</mask>
<g mask="url(#mask0_10_105)">
<path d="M70.917 61.9002C70.917 61.9002 65.4213 66.2501 40.4638 66.2501C15.5063 66.2501 9.77702 61.9002 9.77702 61.9002V41.1718C9.77702 41.1718 19.8548 47.2451 40.2302 47.2451C60.6057 47.2451 70.917 41.1718 70.917 41.1718V61.9002Z" fill="url(#paint2_linear_10_105)"/>
</g>
<path d="M81.881 62.4283C81.881 62.4283 83.4061 69.391 62.7765 72.7821C51.366 74.6583 39.6669 75.3531 31.018 74.832C22.9118 74.3386 20.8784 72.8794 20.8784 72.8794C20.8784 72.8794 32.179 74.0537 43.3697 66.7296C52.3415 60.8579 53.8803 52.1024 65.5862 52.1024C80.5689 52.1024 81.881 62.4283 81.881 62.4283Z" fill="url(#paint3_radial_10_105)"/>
<g opacity="0.2">
<path d="M39.8318 2.08465C51.6888 2.08465 59.3142 4.05812 63.6214 5.71889C66.1083 6.67783 67.7226 9.26974 67.5372 12.0006L64.4458 51.9703C64.4046 52.5401 64.5901 53.103 64.9679 53.5268C65.3457 53.9507 65.8747 54.2009 66.4449 54.2148C78.508 54.5692 79.9575 62.3866 79.9987 62.7062C80.0125 62.8174 80.1636 62.7757 80.1636 62.8035V62.8105C80.1636 63.0189 80.0125 63.2274 80.0537 63.4289C80.0331 63.5332 79.9232 63.6513 79.9025 63.7416C79.8407 63.9987 79.7445 64.2628 79.7033 64.4921C79.0301 68.2375 65.3183 74.9223 40.4295 74.9223C17.7321 74.9223 5.16748 69.4605 3.11345 64.3879C1.95935 61.5458 2.04865 58.7593 2.09674 58.0853C2.13796 57.9046 2.1517 57.717 2.14483 57.5294C1.94561 53.2003 4.8446 48.4264 13.6034 47.9886C14.1599 47.9608 14.682 47.7037 15.0461 47.2868C15.417 46.8629 15.5956 46.307 15.5544 45.7442L12.9371 11.9033C12.7516 9.17941 14.3247 6.60139 16.7497 5.64245C20.8234 4.00253 28.1396 2.08465 39.8318 2.08465ZM39.8318 0C28.0435 0 20.48 1.90398 15.9941 3.67593C12.6966 4.98231 10.6289 8.38029 10.8762 12.0215L13.4935 45.8831C3.34702 46.3904 -0.17025 52.3316 0.0770575 57.6128C0.0564485 57.6475 0.0495789 57.6753 0.0495789 57.6753C0.0495789 57.6753 -0.362601 61.3304 1.18994 65.1661C3.8485 71.7328 18.1031 77 40.402 77C64.7962 77 80.6513 70.5862 81.6818 64.8604C81.7986 64.2211 82.094 63.3247 81.9703 63.0676C81.9497 63.0259 81.9222 62.9912 81.9016 62.9564C81.9222 62.6298 81.8879 62.4352 81.8879 62.4352C81.8879 62.4352 80.6239 52.5401 66.5067 52.1301L69.5981 12.1605C69.8454 8.47062 67.7158 5.05875 64.3634 3.76627C59.6783 1.96652 51.8194 0 39.8318 0Z" fill="#EEEEEE"/>
</g>
<defs>
<radialGradient id="paint0_radial_10_105" cx="0" cy="0" r="1" gradientUnits="userSpaceOnUse" gradientTransform="translate(23.4389 74.9729) scale(44.6791 45.194)">
<stop stop-color="#616161"/>
<stop offset="0.8279" stop-color="#212121"/>
</radialGradient>
<linearGradient id="paint1_linear_10_105" x1="7.72492" y1="-1.52443" x2="59.3104" y2="49.4734" gradientUnits="userSpaceOnUse">
<stop offset="0.116" stop-color="#616161"/>
<stop offset="1" stop-color="#212121"/>
</linearGradient>
<linearGradient id="paint2_linear_10_105" x1="26.729" y1="37.7615" x2="50.2401" y2="61.0047" gradientUnits="userSpaceOnUse">
<stop offset="0.1607" stop-color="#FFAD6A"/>
<stop offset="0.6999" stop-color="#FE7301"/>
</linearGradient>
<radialGradient id="paint3_radial_10_105" cx="0" cy="0" r="1" gradientUnits="userSpaceOnUse" gradientTransform="translate(57.8979 43.6062) scale(37.0947 37.5222)">
<stop offset="0.1808" stop-color="#616161"/>
<stop offset="0.8323" stop-color="#212121"/>
</radialGradient>
</defs>
</svg>
